<svg xmlns="http://www.w3.org/2000/svg" version="1.1" xmlns:xlink="http://www.w3.org/1999/xlink" xmlns:svgjs="http://svgjs.dev/svgjs" width="1440" height="560" preserveAspectRatio="none" viewBox="0 0 1440 560"><g mask="url(&quot;#SvgjsMask1003&quot;)" fill="none"><rect width="1440" height="560" x="0" y="0" fill="#0e2a47"></rect><path d="M89.06 100.2L154.02 137.7L154.02 212.7L89.06 250.2L24.11 212.7L24.11 137.7zM154.02 -12.3L218.97 25.2L218.97 100.2L154.02 137.7L89.06 100.2L89.06 25.2zM348.88 325.2L413.83 362.7L413.83 437.7L348.88 475.2L283.93 437.7L283.93 362.7zM283.93 437.7L348.88 475.2L348.88 550.2L283.93 587.7L218.97 550.2L218.97 475.2zM673.65 -12.3L738.6 25.2L738.6 100.2L673.65 137.7L608.69 100.2L608.69 25.2zM738.6 325.2L803.56 362.7L803.56 437.7L738.6 475.2L673.65 437.7L673.65 362.7zM803.55 212.7L868.51 250.2L868.51 325.2L803.55 362.7L738.6 325.2L738.6 250.2zM998.42 100.2L1063.37 137.7L1063.37 212.7L998.42 250.2L933.46 212.7L933.46 137.7zM998.42 325.2L1063.37 362.7L1063.37 437.7L998.42 475.2L933.46 437.7L933.46 362.7zM998.42 550.2L1063.37 587.7L1063.37 662.7L998.42 700.2L933.46 662.7L933.46 587.7zM1128.32 100.2L1193.28 137.7L1193.28 212.7L1128.32 250.2L1063.37 212.7L1063.37 137.7zM1128.32 550.2L1193.28 587.7L1193.28 662.7L1128.32 700.2L1063.37 662.7L1063.37 587.7zM1258.23 100.2L1323.18 137.7L1323.18 212.7L1258.23 250.2L1193.28 212.7L1193.28 137.7zM1258.23 325.2L1323.18 362.7L1323.18 437.7L1258.23 475.2L1193.28 437.7L1193.28 362.7zM1323.18 212.7L1388.14 250.2L1388.14 325.2L1323.18 362.7L1258.23 325.2L1258.23 250.2z" stroke="#03305d" stroke-width="2"></path><path d="M81.56 100.2 a7.5 7.5 0 1 0 15 0 a7.5 7.5 0 1 0 -15 0zM146.52 137.7 a7.5 7.5 0 1 0 15 0 a7.5 7.5 0 1 0 -15 0zM146.52 212.7 a7.5 7.5 0 1 0 15 0 a7.5 7.5 0 1 0 -15 0zM81.56 250.2 a7.5 7.5 0 1 0 15 0 a7.5 7.5 0 1 0 -15 0zM16.61 212.7 a7.5 7.5 0 1 0 15 0 a7.5 7.5 0 1 0 -15 0zM16.61 137.7 a7.5 7.5 0 1 0 15 0 a7.5 7.5 0 1 0 -15 0zM146.52 -12.3 a7.5 7.5 0 1 0 15 0 a7.5 7.5 0 1 0 -15 0zM211.47 25.2 a7.5 7.5 0 1 0 15 0 a7.5 7.5 0 1 0 -15 0zM211.47 100.2 a7.5 7.5 0 1 0 15 0 a7.5 7.5 0 1 0 -15 0zM81.56 25.2 a7.5 7.5 0 1 0 15 0 a7.5 7.5 0 1 0 -15 0zM341.38 325.2 a7.5 7.5 0 1 0 15 0 a7.5 7.5 0 1 0 -15 0zM406.33 362.7 a7.5 7.5 0 1 0 15 0 a7.5 7.5 0 1 0 -15 0zM406.33 437.7 a7.5 7.5 0 1 0 15 0 a7.5 7.5 0 1 0 -15 0zM341.38 475.2 a7.5 7.5 0 1 0 15 0 a7.5 7.5 0 1 0 -15 0zM276.43 437.7 a7.5 7.5 0 1 0 15 0 a7.5 7.5 0 1 0 -15 0zM276.43 362.7 a7.5 7.5 0 1 0 15 0 a7.5 7.5 0 1 0 -15 0zM341.38 550.2 a7.5 7.5 0 1 0 15 0 a7.5 7.5 0 1 0 -15 0zM276.43 587.7 a7.5 7.5 0 1 0 15 0 a7.5 7.5 0 1 0 -15 0zM211.47 550.2 a7.5 7.5 0 1 0 15 0 a7.5 7.5 0 1 0 -15 0zM211.47 475.2 a7.5 7.5 0 1 0 15 0 a7.5 7.5 0 1 0 -15 0zM666.15 -12.3 a7.5 7.5 0 1 0 15 0 a7.5 7.5 0 1 0 -15 0zM731.1 25.2 a7.5 7.5 0 1 0 15 0 a7.5 7.5 0 1 0 -15 0zM731.1 100.2 a7.5 7.5 0 1 0 15 0 a7.5 7.5 0 1 0 -15 0zM666.15 137.7 a7.5 7.5 0 1 0 15 0 a7.5 7.5 0 1 0 -15 0zM601.19 100.2 a7.5 7.5 0 1 0 15 0 a7.5 7.5 0 1 0 -15 0zM601.19 25.2 a7.5 7.5 0 1 0 15 0 a7.5 7.5 0 1 0 -15 0zM731.1 325.2 a7.5 7.5 0 1 0 15 0 a7.5 7.5 0 1 0 -15 0zM796.06 362.7 a7.5 7.5 0 1 0 15 0 a7.5 7.5 0 1 0 -15 0zM796.06 437.7 a7.5 7.5 0 1 0 15 0 a7.5 7.5 0 1 0 -15 0zM731.1 475.2 a7.5 7.5 0 1 0 15 0 a7.5 7.5 0 1 0 -15 0zM666.15 437.7 a7.5 7.5 0 1 0 15 0 a7.5 7.5 0 1 0 -15 0zM666.15 362.7 a7.5 7.5 0 1 0 15 0 a7.5 7.5 0 1 0 -15 0zM796.05 212.7 a7.5 7.5 0 1 0 15 0 a7.5 7.5 0 1 0 -15 0zM861.01 250.2 a7.5 7.5 0 1 0 15 0 a7.5 7.5 0 1 0 -15 0zM861.01 325.2 a7.5 7.5 0 1 0 15 0 a7.5 7.5 0 1 0 -15 0zM796.05 362.7 a7.5 7.5 0 1 0 15 0 a7.5 7.5 0 1 0 -15 0zM731.1 250.2 a7.5 7.5 0 1 0 15 0 a7.5 7.5 0 1 0 -15 0zM990.92 100.2 a7.5 7.5 0 1 0 15 0 a7.5 7.5 0 1 0 -15 0zM1055.87 137.7 a7.5 7.5 0 1 0 15 0 a7.5 7.5 0 1 0 -15 0zM1055.87 212.7 a7.5 7.5 0 1 0 15 0 a7.5 7.5 0 1 0 -15 0zM990.92 250.2 a7.5 7.5 0 1 0 15 0 a7.5 7.5 0 1 0 -15 0zM925.96 212.7 a7.5 7.5 0 1 0 15 0 a7.5 7.5 0 1 0 -15 0zM925.96 137.7 a7.5 7.5 0 1 0 15 0 a7.5 7.5 0 1 0 -15 0zM990.92 325.2 a7.5 7.5 0 1 0 15 0 a7.5 7.5 0 1 0 -15 0zM1055.87 362.7 a7.5 7.5 0 1 0 15 0 a7.5 7.5 0 1 0 -15 0zM1055.87 437.7 a7.5 7.5 0 1 0 15 0 a7.5 7.5 0 1 0 -15 0zM990.92 475.2 a7.5 7.5 0 1 0 15 0 a7.5 7.5 0 1 0 -15 0zM925.96 437.7 a7.5 7.5 0 1 0 15 0 a7.5 7.5 0 1 0 -15 0zM925.96 362.7 a7.5 7.5 0 1 0 15 0 a7.5 7.5 0 1 0 -15 0zM990.92 550.2 a7.5 7.5 0 1 0 15 0 a7.5 7.5 0 1 0 -15 0zM1055.87 587.7 a7.5 7.5 0 1 0 15 0 a7.5 7.5 0 1 0 -15 0zM1055.87 662.7 a7.5 7.5 0 1 0 15 0 a7.5 7.5 0 1 0 -15 0zM990.92 700.2 a7.5 7.5 0 1 0 15 0 a7.5 7.5 0 1 0 -15 0zM925.96 662.7 a7.5 7.5 0 1 0 15 0 a7.5 7.5 0 1 0 -15 0zM925.96 587.7 a7.5 7.5 0 1 0 15 0 a7.5 7.5 0 1 0 -15 0zM1120.82 100.2 a7.5 7.5 0 1 0 15 0 a7.5 7.5 0 1 0 -15 0zM1185.78 137.7 a7.5 7.5 0 1 0 15 0 a7.5 7.5 0 1 0 -15 0zM1185.78 212.7 a7.5 7.5 0 1 0 15 0 a7.5 7.5 0 1 0 -15 0zM1120.82 250.2 a7.5 7.5 0 1 0 15 0 a7.5 7.5 0 1 0 -15 0zM1120.82 550.2 a7.5 7.5 0 1 0 15 0 a7.5 7.5 0 1 0 -15 0zM1185.78 587.7 a7.5 7.5 0 1 0 15 0 a7.5 7.5 0 1 0 -15 0zM1185.78 662.7 a7.5 7.5 0 1 0 15 0 a7.5 7.5 0 1 0 -15 0zM1120.82 700.2 a7.5 7.5 0 1 0 15 0 a7.5 7.5 0 1 0 -15 0zM1250.73 100.2 a7.5 7.5 0 1 0 15 0 a7.5 7.5 0 1 0 -15 0zM1315.68 137.7 a7.5 7.5 0 1 0 15 0 a7.5 7.5 0 1 0 -15 0zM1315.68 212.7 a7.5 7.5 0 1 0 15 0 a7.5 7.5 0 1 0 -15 0zM1250.73 250.2 a7.5 7.5 0 1 0 15 0 a7.5 7.5 0 1 0 -15 0zM1250.73 325.2 a7.5 7.5 0 1 0 15 0 a7.5 7.5 0 1 0 -15 0zM1315.68 362.7 a7.5 7.5 0 1 0 15 0 a7.5 7.5 0 1 0 -15 0zM1315.68 437.7 a7.5 7.5 0 1 0 15 0 a7.5 7.5 0 1 0 -15 0zM1250.73 475.2 a7.5 7.5 0 1 0 15 0 a7.5 7.5 0 1 0 -15 0zM1185.78 437.7 a7.5 7.5 0 1 0 15 0 a7.5 7.5 0 1 0 -15 0zM1185.78 362.7 a7.5 7.5 0 1 0 15 0 a7.5 7.5 0 1 0 -15 0zM1380.64 250.2 a7.5 7.5 0 1 0 15 0 a7.5 7.5 0 1 0 -15 0zM1380.64 325.2 a7.5 7.5 0 1 0 15 0 a7.5 7.5 0 1 0 -15 0z" fill="#03305d"></path><path d="M27.47 -10.93L70.77 14.07L70.77 64.07L27.47 89.07L-15.83 64.07L-15.83 14.07zM27.47 139.07L70.77 164.07L70.77 214.07L27.47 239.07L-15.83 214.07L-15.83 164.07zM27.47 289.07L70.77 314.07L70.77 364.07L27.47 389.07L-15.83 364.07L-15.83 314.07zM157.38 364.07L200.68 389.07L200.68 439.07L157.38 464.07L114.08 439.07L114.08 389.07zM243.98 64.07L287.28 89.07L287.28 139.07L243.98 164.07L200.68 139.07L200.68 89.07zM243.98 514.07L287.28 539.07L287.28 589.07L243.98 614.07L200.68 589.07L200.68 539.07zM287.28 -10.93L330.59 14.07L330.59 64.07L287.28 89.07L243.98 64.07L243.98 14.07zM287.28 289.07L330.59 314.07L330.59 364.07L287.28 389.07L243.98 364.07L243.98 314.07zM417.19 214.07L460.5 239.07L460.5 289.07L417.19 314.07L373.89 289.07L373.89 239.07zM373.89 289.07L417.19 314.07L417.19 364.07L373.89 389.07L330.59 364.07L330.59 314.07zM460.5 -10.93L503.8 14.07L503.8 64.07L460.5 89.07L417.19 64.07L417.19 14.07zM503.8 364.07L547.1 389.07L547.1 439.07L503.8 464.07L460.5 439.07L460.5 389.07zM547.1 139.07L590.4 164.07L590.4 214.07L547.1 239.07L503.8 214.07L503.8 164.07zM590.4 214.07L633.71 239.07L633.71 289.07L590.4 314.07L547.1 289.07L547.1 239.07zM590.4 364.07L633.71 389.07L633.71 439.07L590.4 464.07L547.1 439.07L547.1 389.07zM547.1 439.07L590.4 464.07L590.4 514.07L547.1 539.07L503.8 514.07L503.8 464.07zM633.71 139.07L677.01 164.07L677.01 214.07L633.71 239.07L590.4 214.07L590.4 164.07zM633.71 289.07L677.01 314.07L677.01 364.07L633.71 389.07L590.4 364.07L590.4 314.07zM763.61 514.07L806.92 539.07L806.92 589.07L763.61 614.07L720.31 589.07L720.31 539.07zM806.92 139.07L850.22 164.07L850.22 214.07L806.92 239.07L763.61 214.07L763.61 164.07zM850.22 214.07L893.52 239.07L893.52 289.07L850.22 314.07L806.92 289.07L806.92 239.07zM806.92 289.07L850.22 314.07L850.22 364.07L806.92 389.07L763.61 364.07L763.61 314.07zM806.92 439.07L850.22 464.07L850.22 514.07L806.92 539.07L763.61 514.07L763.61 464.07zM850.22 514.07L893.52 539.07L893.52 589.07L850.22 614.07L806.92 589.07L806.92 539.07zM936.82 364.07L980.13 389.07L980.13 439.07L936.82 464.07L893.52 439.07L893.52 389.07zM980.13 289.07L1023.43 314.07L1023.43 364.07L980.13 389.07L936.82 364.07L936.82 314.07zM980.13 439.07L1023.43 464.07L1023.43 514.07L980.13 539.07L936.82 514.07L936.82 464.07zM1023.43 514.07L1066.73 539.07L1066.73 589.07L1023.43 614.07L980.13 589.07L980.13 539.07zM1066.73 -10.93L1110.03 14.07L1110.03 64.07L1066.73 89.07L1023.43 64.07L1023.43 14.07zM1066.73 139.07L1110.03 164.07L1110.03 214.07L1066.73 239.07L1023.43 214.07L1023.43 164.07zM1066.73 439.07L1110.03 464.07L1110.03 514.07L1066.73 539.07L1023.43 514.07L1023.43 464.07zM1110.03 514.07L1153.34 539.07L1153.34 589.07L1110.03 614.07L1066.73 589.07L1066.73 539.07zM1153.34 289.07L1196.64 314.07L1196.64 364.07L1153.34 389.07L1110.03 364.07L1110.03 314.07zM1239.94 -10.93L1283.24 14.07L1283.24 64.07L1239.94 89.07L1196.64 64.07L1196.64 14.07zM1283.24 364.07L1326.55 389.07L1326.55 439.07L1283.24 464.07L1239.94 439.07L1239.94 389.07zM1283.24 514.07L1326.55 539.07L1326.55 589.07L1283.24 614.07L1239.94 589.07L1239.94 539.07zM1326.55 -10.93L1369.85 14.07L1369.85 64.07L1326.55 89.07L1283.24 64.07L1283.24 14.07zM1369.85 214.07L1413.15 239.07L1413.15 289.07L1369.85 314.07L1326.55 289.07L1326.55 239.07zM1369.85 364.07L1413.15 389.07L1413.15 439.07L1369.85 464.07L1326.55 439.07L1326.55 389.07zM1369.85 514.07L1413.15 539.07L1413.15 589.07L1369.85 614.07L1326.55 589.07L1326.55 539.07zM1456.45 64.07L1499.76 89.07L1499.76 139.07L1456.45 164.07L1413.15 139.07L1413.15 89.07zM1413.15 439.07L1456.45 464.07L1456.45 514.07L1413.15 539.07L1369.85 514.07L1369.85 464.07zM1456.45 514.07L1499.76 539.07L1499.76 589.07L1456.45 614.07L1413.15 589.07L1413.15 539.07z" stroke="rgba(6, 80, 156, 0.93)" stroke-width="2"></path></g><defs><mask id="SvgjsMask1003"><rect width="1440" height="560" fill="#ffffff"></rect></mask></defs></svg>